<svg width="40" height="40" viewBox="0 0 40 40" fill="none" xmlns="http://www.w3.org/2000/svg">
<circle cx="20" cy="20" r="20" fill="#1B1B1C"/>
<path d="M25.6148 19.7832C25.5425 19.7056 25.4561 19.6439 25.3607 19.6017C25.2653 19.5594 25.1629 19.5375 25.0594 19.5372C24.9559 19.5369 24.8534 19.5583 24.7578 19.5999C24.6622 19.6416 24.5755 19.7028 24.5027 19.78C24.4299 19.8572 24.3725 19.9488 24.3338 20.0495C24.2951 20.1502 24.276 20.258 24.2774 20.3666C24.2788 20.4751 24.3008 20.5823 24.3421 20.6818C24.3834 20.7814 24.4432 20.8713 24.518 20.9463C25.1798 21.6293 25.7048 22.444 26.0623 23.3427C26.4197 24.2413 26.6025 25.2058 26.5997 26.1795C26.5997 27.1801 23.8652 28.6337 19.5799 28.6337C15.2946 28.6337 12.56 27.1794 12.56 26.1779C12.5574 25.2109 12.7377 24.2529 13.0904 23.3594C13.4432 22.466 13.9614 21.6548 14.6151 20.9728C14.689 20.8972 14.7479 20.8069 14.7884 20.7073C14.8288 20.6076 14.8499 20.5005 14.8506 20.3922C14.8512 20.2839 14.8314 20.1765 14.7922 20.0764C14.7529 19.9762 14.6952 19.8851 14.6221 19.8086C14.5491 19.732 14.4623 19.6714 14.3668 19.6302C14.2713 19.5891 14.1689 19.5683 14.0657 19.569C13.9624 19.5697 13.8603 19.5918 13.7653 19.6342C13.6703 19.6766 13.5842 19.7384 13.5121 19.8159C12.713 20.6497 12.0795 21.6415 11.6483 22.7338C11.217 23.8261 10.9967 24.9973 11 26.1795C11 28.8363 15.4202 30.2699 19.5799 30.2699C23.7395 30.2699 28.1597 28.8363 28.1597 26.1795C28.1632 24.9893 27.9398 23.8104 27.5028 22.712C27.0658 21.6136 26.4239 20.6178 25.6148 19.7832Z" fill="white"/>
<path d="M19.5798 20.453C20.6597 20.453 21.7153 20.1171 22.6132 19.4879C23.5111 18.8587 24.2109 17.9643 24.6241 16.9179C25.0374 15.8715 25.1455 14.7201 24.9348 13.6093C24.7241 12.4985 24.2041 11.4781 23.4405 10.6773C22.677 9.87639 21.7041 9.33099 20.645 9.11004C19.5859 8.88908 18.4881 9.00248 17.4904 9.43591C16.4927 9.86933 15.64 10.6033 15.0401 11.545C14.4402 12.4867 14.1199 13.5939 14.1199 14.7265C14.1216 16.2447 14.6974 17.7002 15.7209 18.7738C16.7445 19.8473 18.1323 20.4512 19.5798 20.453ZM19.5798 10.6361C20.3512 10.6361 21.1052 10.876 21.7465 11.3255C22.3878 11.7749 22.8877 12.4138 23.1829 13.1612C23.4781 13.9086 23.5553 14.731 23.4048 15.5245C23.2543 16.3179 22.8829 17.0468 22.3375 17.6188C21.7921 18.1908 21.0972 18.5804 20.3407 18.7382C19.5842 18.8961 18.8 18.8151 18.0874 18.5055C17.3748 18.1959 16.7657 17.6716 16.3372 16.999C15.9086 16.3263 15.6799 15.5355 15.6799 14.7265C15.6811 13.6421 16.0924 12.6024 16.8235 11.8356C17.5546 11.0688 18.5459 10.6374 19.5798 10.6361Z" fill="white"/>
</svg>
